<svg width="24" height="24" viewBox="0 0 24 24" fill="none" xmlns="http://www.w3.org/2000/svg">
<mask id="mask0_2068_60676" style="mask-type:alpha" maskUnits="userSpaceOnUse" x="0" y="0" width="24" height="24">
<rect width="24" height="24" fill="#D9D9D9"/>
</mask>
<g mask="url(#mask0_2068_60676)">
<mask id="mask1_2068_60676" style="mask-type:alpha" maskUnits="userSpaceOnUse" x="2" y="2" width="20" height="20">
<rect x="2" y="2" width="20" height="20" fill="#7C7F83"/>
</mask>
<g mask="url(#mask1_2068_60676)">
<path d="M18.6103 6.62206C19.0953 6.131 19.8867 6.12559 20.3779 6.61034C20.869 7.09533 20.8744 7.88671 20.3896 8.37791L11.5 17.3779C11.2652 17.6156 10.9454 17.7499 10.6113 17.75C10.2771 17.75 9.95652 17.6157 9.72167 17.3779L3.61034 11.1904C3.12559 10.6992 3.131 9.90783 3.62206 9.42284C4.11326 8.93809 4.90464 8.9435 5.38963 9.43456L10.6103 14.7217L18.6103 6.62206Z" fill="currentColor"/>
</g>
</g>
</svg>
