<svg width="24" height="24" viewBox="0 0 24 24" fill="none" xmlns="http://www.w3.org/2000/svg">
<mask id="mask0_590_2085" style="mask-type:alpha" maskUnits="userSpaceOnUse" x="0" y="0" width="24" height="24">
<rect width="24" height="24" fill="#484A4C"/>
</mask>
<g mask="url(#mask0_590_2085)">
<mask id="mask1_590_2085" style="mask-type:alpha" maskUnits="userSpaceOnUse" x="2" y="2" width="20" height="21">
<path d="M1.99994 2.00012H21.9999V22.0001H1.99994V2.00012Z" fill="#484A4C"/>
<path d="M1.99994 2.00012H21.9999V22.0001H1.99994V2.00012Z" fill="#484A4C"/>
</mask>
<g mask="url(#mask1_590_2085)">
<path d="M16.4658 3.99988C17.1908 3.99373 17.9106 4.12894 18.5829 4.39734C19.2553 4.66577 19.8685 5.0626 20.3847 5.56628C20.9008 6.0699 21.31 6.67045 21.5878 7.33289C21.8657 7.99559 22.0063 8.7072 21.9999 9.42468C21.9935 10.1421 21.8403 10.851 21.5507 11.5087C21.2635 12.1608 20.847 12.7489 20.3281 13.2411L20.329 13.2421L12.6699 20.7157C12.2814 21.0944 11.6617 21.0946 11.2734 20.7157L3.61517 13.2421C2.58411 12.2357 2.00005 10.8653 1.99994 9.43152C1.99994 7.99761 2.58411 6.62741 3.61517 5.62097C4.64576 4.6158 6.03844 4.0546 7.48529 4.05457C8.93213 4.05457 10.3248 4.61488 11.3554 5.62L11.9716 6.22058L12.5888 5.62C13.0934 5.11362 13.6944 4.71095 14.3564 4.43347C15.0239 4.15369 15.7408 4.00606 16.4658 3.99988Z" fill="currentColor"/>
</g>
</g>
</svg>
