<svg width="24" height="24" viewBox="0 0 24 24" fill="none" xmlns="http://www.w3.org/2000/svg">
<mask id="mask0_2228_83354" style="mask-type:alpha" maskUnits="userSpaceOnUse" x="0" y="0" width="24" height="24">
<rect width="24" height="24" fill="#D9D9D9"/>
</mask>
<g mask="url(#mask0_2228_83354)">
<mask id="mask1_2228_83354" style="mask-type:alpha" maskUnits="userSpaceOnUse" x="2" y="2" width="20" height="20">
<rect x="2" y="2" width="20" height="20" fill="#D9D9D9"/>
</mask>
<g mask="url(#mask1_2228_83354)">
<path d="M3.5 18C3.5 14.6863 6.18629 12 9.5 12H14.5C17.8137 12 20.5 14.6863 20.5 18C20.5 20.2091 18.7091 22 16.5 22H7.5C5.29086 22 3.5 20.2091 3.5 18Z" fill="currentColor"/>
<path d="M16.5 6.5C16.5 8.98528 14.4853 11 12 11C9.51472 11 7.5 8.98528 7.5 6.5C7.5 4.01472 9.51472 2 12 2C14.4853 2 16.5 4.01472 16.5 6.5Z" fill="currentColor"/>
</g>
</g>
</svg>
