<svg width="24" height="24" viewBox="0 0 24 24" fill="none" xmlns="http://www.w3.org/2000/svg">
<mask id="mask0_2293_85603" style="mask-type:alpha" maskUnits="userSpaceOnUse" x="0" y="0" width="24" height="24">
<rect width="24" height="24" fill="#D9D9D9"/>
</mask>
<g mask="url(#mask0_2293_85603)">
<mask id="mask1_2293_85603" style="mask-type:alpha" maskUnits="userSpaceOnUse" x="2" y="2" width="20" height="20">
<rect x="2" y="2" width="20" height="20" fill="#7C7F83"/>
</mask>
<g mask="url(#mask1_2293_85603)">
<path d="M2 4C2 2.89543 2.89543 2 4 2H16C17.1046 2 18 2.89543 18 4V20C18 21.1046 17.1046 22 16 22H4C2.89543 22 2 21.1046 2 20V4Z" fill="#F1F3F5"/>
<path d="M18 5H20.5C21.3284 5 22 5.67157 22 6.5C22 7.32843 21.3284 8 20.5 8H18V5Z" fill="#3182F6"/>
<path d="M18 9H20.5C21.3284 9 22 9.67157 22 10.5C22 11.3284 21.3284 12 20.5 12H18V9Z" fill="#FFDC42"/>
<path d="M9.6268 16.2558C9.0413 16.2558 8.56792 15.7824 8.58038 15.2094C8.56792 14.6363 9.0413 14.1754 9.6268 14.1754C10.1749 14.1754 10.6608 14.6363 10.6608 15.2094C10.6608 15.7824 10.1749 16.2558 9.6268 16.2558Z" fill="#ADB5BD"/>
<path d="M9.93825 10.812C9.23402 11.2462 8.82837 11.7026 8.7734 13.046C8.76761 13.1876 8.88274 13.3035 9.02445 13.3035H10.1601C10.2996 13.3035 10.4116 13.191 10.4247 13.0521C10.4913 12.3503 10.8063 11.9898 11.4331 11.6092C12.2553 11.1234 12.7785 10.4632 12.7785 9.44165C12.7785 7.90939 11.5453 7 9.81368 7C8.51883 7 7.42113 7.55038 7.03423 8.69784C6.87486 9.17049 7.29626 9.59114 7.79505 9.59114C8.27471 9.59114 8.63013 9.15451 8.96241 8.80859C9.17732 8.58487 9.48186 8.46997 9.80122 8.46997C10.3992 8.46997 10.885 8.88107 10.885 9.50394C10.885 10.077 10.4739 10.4632 9.93825 10.812Z" fill="#ADB5BD"/>
</g>
</g>
</svg>
