<svg width="24" height="24" viewBox="0 0 24 24" fill="none" xmlns="http://www.w3.org/2000/svg">
<mask id="mask0_2333_89977" style="mask-type:alpha" maskUnits="userSpaceOnUse" x="0" y="0" width="24" height="24">
<rect width="24" height="24" fill="#D9D9D9"/>
</mask>
<g mask="url(#mask0_2333_89977)">
<mask id="mask1_2333_89977" style="mask-type:alpha" maskUnits="userSpaceOnUse" x="2" y="2" width="20" height="20">
<rect x="2" y="2" width="20" height="20" fill="#7C7F83"/>
</mask>
<g mask="url(#mask1_2333_89977)">
<path d="M9.21794 12.4004L11.206 10.4124L17.0257 15.5855C17.7511 16.2303 17.7841 17.3528 17.0978 18.0391L16.8447 18.2923C16.1583 18.9786 15.0359 18.9456 14.391 18.2202L9.21794 12.4004Z" fill="#343A40"/>
<path d="M9.8749 4.31008C9.95878 4.39396 9.86438 4.56193 9.74599 4.5547C9.34792 4.52997 9.0136 4.65263 8.82032 4.84591C7.94195 5.72428 7.94195 7.14839 8.82032 8.02675L11.2059 10.4124L9.21792 12.4004L7.5394 10.7219C7.14887 10.3314 6.51571 10.3314 6.12519 10.7219L4.84427 12.0028C4.62468 12.2224 4.26865 12.2224 4.04906 12.0028L2.45864 10.4124C2.23905 10.1928 2.23905 9.83676 2.45864 9.61717L8.82032 3.25549L9.8749 4.31008Z" fill="#CED4DA"/>
<path d="M14.8609 13.6376L13.4551 12.1194L10.3625 13.5251L12.0494 15.5775L14.8609 13.6376Z" fill="#212529"/>
<path d="M19.9691 7.19322C20.3133 6.8491 20.9 6.9738 20.9771 7.46128C21.1609 8.62467 20.8131 9.84555 19.9287 10.73C18.7897 11.869 17.0928 12.1176 15.6791 11.4872L9.59119 17.9902C8.94514 18.6803 7.84426 18.6863 7.16125 18.0032C6.47824 17.3202 6.48424 16.2194 7.17434 15.5733L13.6771 9.48518C13.0468 8.07156 13.2956 6.37476 14.4345 5.23581C15.319 4.3514 16.5398 4.00357 17.7032 4.18742C18.1907 4.26448 18.3154 4.85123 17.9713 5.19535L16.6715 6.49515C16.5177 6.64898 16.4468 6.86781 16.4803 7.08584L16.6131 7.9519C16.6604 8.25984 16.9047 8.50412 17.2126 8.55136L18.0787 8.68423C18.2967 8.71765 18.5155 8.64683 18.6693 8.49303L19.9691 7.19322Z" fill="#CED4DA"/>
</g>
</g>
</svg>
